<?xml version="1.0" encoding="UTF-8" standalone="no"?>
<svg xmlns:dc="http://purl.org/dc/elements/1.1/" xmlns:cc="http://creativecommons.org/ns#" xmlns:rdf="http://www.w3.org/1999/02/22-rdf-syntax-ns#" xmlns:svg="http://www.w3.org/2000/svg" xmlns="http://www.w3.org/2000/svg" xmlns:sodipodi="http://sodipodi.sourceforge.net/DTD/sodipodi-0.dtd" xmlns:inkscape="http://www.inkscape.org/namespaces/inkscape" id="Layer_1" data-name="Layer 1" viewBox="0 0 43 40" version="1.1" sodipodi:docname="logo_horizontal_color.svg" width="43" height="40" inkscape:version="0.92.5 (2060ec1f9f, 2020-04-08)">
  <metadata id="metadata90">
    <rdf:RDF>
      <cc:Work rdf:about="">
        <dc:format>image/svg+xml</dc:format>
        <dc:type rdf:resource="http://purl.org/dc/dcmitype/StillImage"/>
        <dc:title>logo_horizontal_color</dc:title>
      </cc:Work>
    </rdf:RDF>
  </metadata>
  <sodipodi:namedview pagecolor="#ffffff" bordercolor="#666666" borderopacity="1" objecttolerance="10" gridtolerance="10" guidetolerance="10" inkscape:pageopacity="0" inkscape:pageshadow="2" inkscape:window-width="1866" inkscape:window-height="983" id="namedview88" showgrid="false" fit-margin-top="0" fit-margin-left="0" fit-margin-right="-0.6" fit-margin-bottom="0" inkscape:zoom="25.82902" inkscape:cx="23.725927" inkscape:cy="26.282796" inkscape:window-x="54" inkscape:window-y="27" inkscape:window-maximized="1" inkscape:current-layer="Layer_1"/>
  <defs id="defs4">
    <style id="style2">.cls-1{fill:#c4c4c4;}.cls-2{fill:#de3b26;}.cls-3{fill:#aac938;}.cls-4{fill:#40bbc7;}.cls-5{fill:#3f9cd6;}.cls-6{fill:#ed3c34;}.cls-7{fill:#ed7e22;}.cls-8{fill:#6a4da0;}.cls-9{fill:#793c97;}.cls-10{fill:#eeda13;}.cls-11{fill:#eb1288;}.cls-12{fill:#fff;}</style>
  </defs>
  <title id="title6">logo_horizontal_color</title>
  <g id="triangle36" transform="translate(-0.00998448,-39.57283)">
    <path id="_Path_" data-name="&lt;Path&gt;" class="cls-1" d="m 376.2,353 h 0.08" transform="translate(-283.79,-247.45)" inkscape:connector-curvature="0" style="fill:#c4c4c4"/>
    <path id="_Path_2" data-name="&lt;Path&gt;" class="cls-1" d="M 376.21,352.84" transform="translate(-283.79,-247.45)" inkscape:connector-curvature="0" style="fill:#c4c4c4"/>
  </g>
  <g id="triangle36-2" data-name="triangle36" transform="translate(-0.00998448,-39.57283)">
    <path id="_Path_3" data-name="&lt;Path&gt;" class="cls-1" d="M 376.46,352.93" transform="translate(-283.79,-247.45)" inkscape:connector-curvature="0" style="fill:#c4c4c4"/>
    <path id="_Path_4" data-name="&lt;Path&gt;" class="cls-1" d="m 376.18,352.86 a 0.1,0.1 0 0 0 0,0.18" transform="translate(-283.79,-247.45)" inkscape:connector-curvature="0" style="fill:#c4c4c4"/>
  </g>
  <g id="_Group_" data-name="&lt;Group&gt;" transform="matrix(0.50342526,0,0,0.50342526,0.06478711,-0.10376627)">
    <circle id="_Path_5" data-name="&lt;Path&gt;" class="cls-2" cx="75.980003" cy="15.02" r="5.5700002" style="fill:#de3b26"/>
    <path id="_Path_6" data-name="&lt;Path&gt;" class="cls-3" d="m 337.23,248.69 c -19.82,-4.8 -39.16,4.81 -43.19,21.46 a 26.58,26.58 0 0 0 -0.36,10.72 26.55,26.55 0 0 1 4,-4.49 c 4,-6.4 10.46,-10.54 17.7,-10.54 a 18.89,18.89 0 0 1 6.83,1.29 15.31,15.31 0 0 1 6.1,-1.29 15.07,15.07 0 0 1 3,0.31 c 1.38,-0.2 2.87,0.2 4.21,-0.31 15.85,-6 27.28,11.49 28.71,26.2 a 26.39,26.39 0 0 0 1.53,-4.5 c 4.08,-16.66 -8.76,-34.05 -28.53,-38.85 z" transform="translate(-283.79,-247.45)" inkscape:connector-curvature="0" style="fill:#aac938"/>
    <path id="_Path_7" data-name="&lt;Path&gt;" class="cls-3" d="m 331.53,262 a 16.93,16.93 0 0 0 -3.42,-0.35 17.2,17.2 0 0 0 -6.86,1.44 22.39,22.39 0 0 1 2.43,1.11 32,32 0 0 1 7.85,-2.2 z" transform="translate(-283.79,-247.45)" inkscape:connector-curvature="0" style="fill:#aac938"/>
    <path id="_Path_8" data-name="&lt;Path&gt;" class="cls-4" d="m 313.58,320.6 c -13.7,0 -24.81,-13.2 -24.81,-29.48 A 34.54,34.54 0 0 1 290,282 a 31.85,31.85 0 0 1 -0.79,-3.48 29.32,29.32 0 0 0 -5.41,17 29.84,29.84 0 0 0 38.57,28.29 32.35,32.35 0 0 1 -5.65,-3.46 21.11,21.11 0 0 1 -3.14,0.25 z" transform="translate(-283.79,-247.45)" inkscape:connector-curvature="0" style="fill:#40bbc7"/>
    <path id="_Path_9" data-name="&lt;Path&gt;" class="cls-5" d="m 293.7,273.49 a 29.82,29.82 0 0 0 -4.5,5 31.85,31.85 0 0 0 0.8,3.51 31.69,31.69 0 0 1 3.7,-8.51 z" transform="translate(-283.79,-247.45)" inkscape:connector-curvature="0" style="fill:#3f9cd6"/>
    <path id="_Path_10" data-name="&lt;Path&gt;" class="cls-6" d="m 338.78,311.32 0.1,-0.16 h -0.15 z" transform="translate(-283.79,-247.45)" inkscape:connector-curvature="0" style="fill:#ed3c34"/>
    <g id="_Group_2" data-name="&lt;Group&gt;">
      <path id="_Path_11" data-name="&lt;Path&gt;" class="cls-7" d="m 368.51,291.08 a 32.37,32.37 0 0 0 -37,-29.08 32,32 0 0 0 -7.85,2.2 26.2,26.2 0 0 1 9.78,9.29 33.13,33.13 0 0 1 4.93,17.64 c 0,0.19 0,0.37 0,0.55 h 1 a 9.42,9.42 0 0 1 1.49,0 43.82,43.82 0 0 0 -2.36,-12.24 l -0.31,-0.92 c -2,-6 -1.29,-10.29 2.08,-11.91 v 0 c 3.64,-1.73 10,0.15 12.38,4.43 a 21.74,21.74 0 0 1 2.35,15.3 c -1,3.84 -1.81,6.52 -4.14,9.64 a 48.1,48.1 0 0 1 -5.38,6.18 27.37,27.37 0 0 0 -4.38,4.68 17.73,17.73 0 0 1 -2.63,3.73 c 0.07,0.15 0.15,0.37 0.24,0.62 h 0.15 l -0.1,0.16 c 0.31,0.85 0.66,2 0.69,2 l 0.06,0.17 h -3.91 l -0.29,-2.07 v -0.29 0 l 0.06,-0.14 c -1,-0.26 -1.92,-0.56 -2.8,-0.88 q -0.5,0.7 -1,1.36 a 24.69,24.69 0 0 1 -10.27,7.68 21.38,21.38 0 0 1 -4.54,1.2 32.36,32.36 0 0 0 52,-26.05 c -0.09,-1.11 -0.14,-2.19 -0.25,-3.25 z" transform="translate(-283.79,-247.45)" inkscape:connector-curvature="0" style="fill:#ed7e22"/>
      <path id="_Path_12" data-name="&lt;Path&gt;" class="cls-7" d="m 339.64,301.37 -0.23,0.37 a 9.39,9.39 0 0 1 3.36,0.66 l 0.34,0.15 0.12,0.06 a 9.87,9.87 0 0 0 1.23,-0.85 28.58,28.58 0 0 0 5.84,-6.84 28.2,28.2 0 0 0 3.53,-8.79 18.13,18.13 0 0 0 -2.95,-14.28 c -2.69,-3.9 -15,-8 -11.85,6.46 0.18,0.85 0.43,1.72 0.7,2.65 a 43.35,43.35 0 0 1 1.86,10.72 c 0,0.15 0,0.3 0,0.46 a 23.49,23.49 0 0 1 -0.41,4.87 14.3,14.3 0 0 1 -1.54,4.36 z" transform="translate(-283.79,-247.45)" inkscape:connector-curvature="0" style="fill:#ed7e22"/>
    </g>
    <path id="_Path_13" data-name="&lt;Path&gt;" class="cls-7" d="m 338.66,301.74 a 12.8,12.8 0 0 0 1.88,-4.86 23.18,23.18 0 0 0 0.39,-4.78 c -0.5,0 -1,0 -1.49,0 h -1.07 a 34.18,34.18 0 0 1 -1.7,9.78 15.35,15.35 0 0 1 1.99,-0.14 z" transform="translate(-283.79,-247.45)" inkscape:connector-curvature="0" style="fill:#ed7e22"/>
    <path id="_Path_14" data-name="&lt;Path&gt;" class="cls-8" d="m 315,308 a 47.94,47.94 0 0 1 -4.37,-2 22.61,22.61 0 0 0 4.37,2 z" transform="translate(-283.79,-247.45)" inkscape:connector-curvature="0" style="fill:#6a4da0"/>
    <path id="_Path_15" data-name="&lt;Path&gt;" class="cls-8" d="m 304.9,302.45 -0.05,-0.06 v 0 z" transform="translate(-283.79,-247.45)" inkscape:connector-curvature="0" style="fill:#6a4da0"/>
    <path id="_Path_16" data-name="&lt;Path&gt;" class="cls-9" d="m 332.47,298.92 -1.35,-5.49 c -0.29,0.1 -0.58,0.22 -0.86,0.34 0.74,2.03 1.54,3.79 2.21,5.15 z" transform="translate(-283.79,-247.45)" inkscape:connector-curvature="0" style="fill:#793c97"/>
    <path id="_Path_17" data-name="&lt;Path&gt;" class="cls-9" d="m 333.84,292.22 a 23,23 0 0 0 -4.69,-9.17 c 0.52,2.17 1.41,6.06 2.27,9.81 a 13.1,13.1 0 0 1 2.42,-0.64 z" transform="translate(-283.79,-247.45)" inkscape:connector-curvature="0" style="fill:#793c97"/>
    <path id="_Path_18" data-name="&lt;Path&gt;" class="cls-9" d="m 329.78,294 a 16,16 0 0 0 -1.57,0.84 9.46,9.46 0 0 0 3,4.78 c 0,0 1,0.8 1.83,1.57 l -0.17,-0.71 A 40.43,40.43 0 0 1 329.78,294 Z" transform="translate(-283.79,-247.45)" inkscape:connector-curvature="0" style="fill:#793c97"/>
    <path id="_Path_19" data-name="&lt;Path&gt;" class="cls-9" d="m 335.29,302.16 c 0.44,-0.1 0.91,-0.18 1.38,-0.25 a 34.18,34.18 0 0 0 1.7,-9.78 31.63,31.63 0 0 0 -3.88,0.42 35.08,35.08 0 0 1 0.8,9.61 z" transform="translate(-283.79,-247.45)" inkscape:connector-curvature="0" style="fill:#793c97"/>
    <path id="_Path_20" data-name="&lt;Path&gt;" class="cls-9" d="m 334.54,302.34 0.24,-0.06 a 1.87,1.87 0 0 1 0,-0.49 28.45,28.45 0 0 0 -0.81,-9.14 20.25,20.25 0 0 0 -2.43,0.64 l 1.54,6.76 1.39,2.22 z" transform="translate(-283.79,-247.45)" inkscape:connector-curvature="0" style="fill:#793c97"/>
    <path id="_Path_21" data-name="&lt;Path&gt;" class="cls-9" d="m 326.57,307 a 5.47,5.47 0 0 1 2,-1.93 c -0.43,0 -1.12,-0.07 -1.54,-0.12 a 12.41,12.41 0 0 1 -5.69,1.46 h -0.68 c -4.9,-0.3 -9.61,-3.8 -14,-10.4 -0.12,-0.18 -0.29,-0.49 -0.5,-0.87 -0.41,-0.78 -1,-1.9 -1.58,-3.14 l -0.2,-0.41 -0.33,-0.69 -1.43,-3 c -0.56,-1.18 -1.05,-2.2 -1.36,-2.83 a 5.66,5.66 0 0 0 -1.48,-2.11 1.46,1.46 0 0 0 -2,0.13 c -0.57,0.54 -0.36,1.12 -0.28,1.81 a 26.75,26.75 0 0 0 2.83,8.58 c 0.07,0.14 0.3,0.73 0.37,0.87 0.56,1.08 1,1.86 1.55,2.85 0.7,1.22 4.21,6 5.34,6.81 0.25,0.19 2.31,1.6 3.05,2 a 47.94,47.94 0 0 0 4.37,2 13.68,13.68 0 0 0 11.56,-1.01 z" transform="translate(-283.79,-247.45)" inkscape:connector-curvature="0" style="fill:#793c97"/>
    <g id="_Group_3" data-name="&lt;Group&gt;">
      <path id="_Path_22" data-name="&lt;Path&gt;" class="cls-9" d="m 318,302.84 c -1.16,-0.61 -2.52,-1.68 -5.17,-4.6 a 59.32,59.32 0 0 1 -3.88,-5.39 c -0.1,0 -0.84,-1.17 -0.94,-1.2 -0.55,-0.16 -0.29,-0.05 -0.85,-0.05 a 8.79,8.79 0 0 0 -1.17,0.09 c -0.31,0 -0.62,0.1 -0.93,0.16 0.37,0.75 0.71,1.46 1,2.06 0.43,0.85 0.78,1.5 1,1.8 4.29,6.48 8.88,9.91 13.63,10.2 a 11.55,11.55 0 0 0 5.55,-1.11 16.31,16.31 0 0 1 -8.24,-1.96 z" transform="translate(-283.79,-247.45)" inkscape:connector-curvature="0" style="fill:#793c97"/>
      <path id="_Path_23" data-name="&lt;Path&gt;" class="cls-9" d="m 333.46,273.49 a 26.2,26.2 0 0 0 -9.78,-9.29 22.39,22.39 0 0 0 -2.43,-1.11 21.22,21.22 0 0 0 -7.67,-1.44 c -8.14,0 -15.36,4.65 -19.88,11.84 a 31.69,31.69 0 0 0 -3.7,8.51 34.54,34.54 0 0 0 -1.22,9.12 c 0,16.28 11.11,29.48 24.81,29.48 a 21.11,21.11 0 0 0 3.13,-0.24 21.38,21.38 0 0 0 4.54,-1.2 24.69,24.69 0 0 0 10.27,-7.68 q 0.53,-0.66 1,-1.36 a 12.32,12.32 0 0 1 -3.27,-1.52 10.43,10.43 0 0 1 -2.09,2.24 c -17,11 -30.63,-10.77 -29,-15.19 a 5.53,5.53 0 0 1 1.05,-2 25.08,25.08 0 0 1 -2.62,-8.55 3,3 0 0 1 0.58,-2.58 2.22,2.22 0 0 1 2.78,0 6,6 0 0 1 1.62,2.27 c 0.31,0.63 0.8,1.66 1.36,2.84 l 1.13,2.37 0.44,0.92 c 1.17,-0.7 3.2,0.18 2.88,-0.52 -0.49,-1.08 -1.29,-2.15 -1.92,-3.65 -0.29,-0.7 -0.72,-1.57 -1,-2.27 a 20.63,20.63 0 0 1 -1.47,-5.53 13.24,13.24 0 0 1 0,-4.87 9.55,9.55 0 0 1 4.47,-5.69 15.22,15.22 0 0 1 7.66,-2.07 c 0.3,0 0.57,0 0.83,0.08 a 5.53,5.53 0 0 1 2.13,0.68 l 0.09,0.06 a 5.75,5.75 0 0 1 2.46,3 c 0.81,2.44 1.63,4.65 2.42,6.78 l 0.87,2.35 a 1.74,1.74 0 0 1 0.37,-0.81 c 0.43,-0.55 1.07,-0.78 1.41,-0.5 0.34,0.28 0.28,0.84 -0.07,1.36 a 17.93,17.93 0 0 1 1.57,1.1 2.21,2.21 0 0 1 0.83,-0.35 c 0.76,-0.16 1.44,0.05 1.53,0.47 0.09,0.42 -0.3,0.73 -0.87,0.94 l 0.09,0.33 a 21.81,21.81 0 0 1 5.54,10.3 32.06,32.06 0 0 1 4,-0.43 c 0,-0.18 0,-0.37 0,-0.55 a 33.13,33.13 0 0 0 -4.87,-17.64 z" transform="translate(-283.79,-247.45)" inkscape:connector-curvature="0" style="fill:#793c97"/>
      <path id="_Path_24" data-name="&lt;Path&gt;" class="cls-9" d="m 327,307.27 -0.18,0.1 c -3.69,2.5 -4.55,2.86 -8.44,2.85 -7.49,0 -16.31,-8.71 -18.62,-15.67 -0.46,0.64 5.37,19.81 21.67,17.5 a 8.55,8.55 0 0 0 6.21,-4.33 z" transform="translate(-283.79,-247.45)" inkscape:connector-curvature="0" style="fill:#793c97"/>
      <path id="_Path_25" data-name="&lt;Path&gt;" class="cls-9" d="m 333,301.79 c -0.81,-0.75 -1.89,-1.67 -2.1,-1.81 a 5.86,5.86 0 0 1 -1.26,-1.23 12.85,12.85 0 0 1 -1.85,-3.67 l -0.15,-0.44 a 40.08,40.08 0 0 1 -1.17,-5 c -0.05,-0.28 -0.1,-0.52 -0.13,-0.73 a 74.68,74.68 0 0 0 -3.67,-11.79 c -0.79,-2.14 -1.61,-4.34 -2.42,-6.79 a 5.31,5.31 0 0 0 -2.35,-2.8 h -0.08 a 5.77,5.77 0 0 0 -2.15,-0.73 l -0.52,-0.05 h -0.28 c -2.37,0 -5.2,1.64 -6.72,2.56 a 8.48,8.48 0 0 0 -3.91,5.31 12,12 0 0 0 0,4 29.34,29.34 0 0 0 1.28,5.39 c 0.05,-0.15 0.1,-0.28 0.15,-0.4 0,0.14 -0.1,0.27 -0.15,0.4 0.23,0.68 0.48,1.36 0.76,2 a 29.21,29.21 0 0 0 2,4 c 0.38,0.62 0.73,1.14 1.06,1.61 l 0.53,0.74 a 57.87,57.87 0 0 0 3.74,4.49 29.7,29.7 0 0 0 4.66,4.38 19.18,19.18 0 0 0 8.59,3.29 l 0.77,0.09 c 0.42,0 0.84,0.07 1.26,0.08 h 0.08 a 21.92,21.92 0 0 1 3.14,-1.48 c 0.43,-0.16 1,-0.37 1.67,-0.56 z" transform="translate(-283.79,-247.45)" inkscape:connector-curvature="0" style="fill:#793c97"/>
    </g>
    <path id="_Path_26" data-name="&lt;Path&gt;" class="cls-9" d="m 327,281.3 a 0.45,0.45 0 0 1 -0.09,-0.19 0.47,0.47 0 0 1 0,-0.26 q -0.72,-0.6 -1.52,-1.15 a 1,1 0 0 1 -1.13,0.3 c 0.23,0.63 0.45,1.26 0.66,1.88 0.09,-0.23 0.59,-0.47 1.22,-0.56 A 3,3 0 0 1 327,281.3 Z" transform="translate(-283.79,-247.45)" inkscape:connector-curvature="0" style="fill:#793c97"/>
    <path id="_Path_27" data-name="&lt;Path&gt;" class="cls-9" d="m 326.25,282.58 a 2.64,2.64 0 0 1 0,-0.33 h -0.31 a 1.89,1.89 0 0 1 -0.8,-0.08 0.61,0.61 0 0 1 -0.17,-0.09 52.35,52.35 0 0 1 1.82,6.66 c 0,0.2 0.08,0.45 0.14,0.73 a 40.51,40.51 0 0 0 1.12,4.88 16.6,16.6 0 0 1 1.55,-0.82 101.88,101.88 0 0 1 -3.35,-10.95 z" transform="translate(-283.79,-247.45)" inkscape:connector-curvature="0" style="fill:#793c97"/>
    <path id="_Path_28" data-name="&lt;Path&gt;" class="cls-9" d="m 326.79,282.58 a 92.78,92.78 0 0 0 3.31,10.77 c 0.3,-0.13 0.61,-0.25 0.92,-0.36 l -2.66,-10.81 -0.57,-0.56 h -0.27 v 0 a 0.19,0.19 0 0 1 0,0.14 1.5,1.5 0 0 1 -0.86,0.45 3.42,3.42 0 0 1 0.13,0.37 z" transform="translate(-283.79,-247.45)" inkscape:connector-curvature="0" style="fill:#793c97"/>
    <circle id="_Path_29" data-name="&lt;Path&gt;" class="cls-10" cx="7.6100001" cy="26.040001" r="3.98" style="fill:#eeda13"/>
    <ellipse id="_Path_30" data-name="&lt;Path&gt;" class="cls-11" cx="35.16" cy="75.760002" rx="4.3699999" ry="3.76" style="fill:#eb1288"/>
  </g>
</svg>