<svg id="Layer_1" data-name="Layer 1" xmlns="http://www.w3.org/2000/svg" viewBox="0 0 274.57 79.52"><defs><style>.cls-1,.cls-13{fill:#fff;}.cls-2{fill:#de3b26;}.cls-3{fill:#aac938;}.cls-4{fill:#40bbc7;}.cls-5{fill:#3f9cd6;}.cls-6{fill:#ed3c34;}.cls-7{fill:#ed7e22;}.cls-8{fill:#6a4da0;}.cls-9{fill:#793c97;}.cls-10{fill:#eeda13;}.cls-11{fill:#eb1288;}.cls-12{fill:none;}.cls-13{stroke:#fff;stroke-miterlimit:10;stroke-width:0.28px;}</style></defs><title>logo_horizontal_b</title><path class="cls-1" d="M305.16,278.13l25-7.3,12.66,3.65L355.65,282l4.26,20.59s-5.78,12.57-5.53,14.76-3.26,5.84-4.76,7.77,4.8,4.35-3.1,5.89-10,4.06-13.2,3-2.17-2.74-8.18-3.38-8.16.13-11.34,0-12.42-1.26-12.42-1.26l-7.53-9.53s-.44-8.17-.08-9.76-.33-13.13-.33-13.13l5.85-8.75Z" transform="translate(-283.93 -261.38)"/><g id="_Group_" data-name="&lt;Group&gt;"><circle id="_Path_" data-name="&lt;Path&gt;" class="cls-2" cx="75.98" cy="15.02" r="5.57"/><path id="_Path_2" data-name="&lt;Path&gt;" class="cls-3" d="M337.37,262.62c-19.82-4.8-39.16,4.81-43.19,21.46a26.58,26.58,0,0,0-.36,10.72,26.55,26.55,0,0,1,4-4.49c4-6.4,10.46-10.54,17.7-10.54a18.89,18.89,0,0,1,6.83,1.29,15.31,15.31,0,0,1,6.1-1.29,15.07,15.07,0,0,1,3,.31c1.38-.2,2.87.2,4.21-.31,15.85-6,27.28,11.49,28.71,26.2a26.39,26.39,0,0,0,1.53-4.5C370,284.82,357.18,267.42,337.37,262.62Z" transform="translate(-283.93 -261.38)"/><path id="_Path_3" data-name="&lt;Path&gt;" class="cls-3" d="M331.67,275.93a16.93,16.93,0,0,0-3.42-.35,17.2,17.2,0,0,0-6.86,1.44,22.39,22.39,0,0,1,2.43,1.11A32,32,0,0,1,331.67,275.93Z" transform="translate(-283.93 -261.38)"/><path id="_Path_4" data-name="&lt;Path&gt;" class="cls-4" d="M313.72,334.54c-13.7,0-24.81-13.2-24.81-29.48a34.54,34.54,0,0,1,1.22-9.12,31.85,31.85,0,0,1-.79-3.48,29.32,29.32,0,0,0-5.41,17,29.84,29.84,0,0,0,38.57,28.29,32.35,32.35,0,0,1-5.65-3.46A21.11,21.11,0,0,1,313.72,334.54Z" transform="translate(-283.93 -261.38)"/><path id="_Path_5" data-name="&lt;Path&gt;" class="cls-5" d="M293.84,287.42a29.82,29.82,0,0,0-4.5,5,31.85,31.85,0,0,0,.79,3.48A31.69,31.69,0,0,1,293.84,287.42Z" transform="translate(-283.93 -261.38)"/><path id="_Path_6" data-name="&lt;Path&gt;" class="cls-6" d="M338.92,325.25l.1-.16-.15,0Z" transform="translate(-283.93 -261.38)"/><g id="_Group_2" data-name="&lt;Group&gt;"><path id="_Path_7" data-name="&lt;Path&gt;" class="cls-7" d="M368.65,305a32.37,32.37,0,0,0-37-29.08,32,32,0,0,0-7.85,2.2,26.2,26.2,0,0,1,9.78,9.29,33.13,33.13,0,0,1,4.93,17.64c0,.19,0,.37,0,.55l1,0a9.42,9.42,0,0,1,1.49,0,43.82,43.82,0,0,0-2.36-12.24l-.31-.92c-2-6-1.29-10.29,2.08-11.91h0c3.64-1.73,10,.15,12.38,4.43a21.74,21.74,0,0,1,2.28,15.35c-1,3.84-1.81,6.52-4.14,9.64a48.1,48.1,0,0,1-5.38,6.18,27.37,27.37,0,0,0-4.38,4.68,17.73,17.73,0,0,1-2.63,3.73c.07.15.15.37.24.62l.15,0-.1.16c.31.85.66,2,.69,2l.06.17h-3.91l-.29-2.07,0-.29v0l.06-.14c-1-.26-1.92-.56-2.8-.88q-.5.7-1,1.36a24.69,24.69,0,0,1-10.27,7.68,21.38,21.38,0,0,1-4.54,1.2,32.36,32.36,0,0,0,52-26.05C368.81,307.15,368.75,306.07,368.65,305Z" transform="translate(-283.93 -261.38)"/><path id="_Path_8" data-name="&lt;Path&gt;" class="cls-7" d="M339.78,315.3l-.23.37a9.39,9.39,0,0,1,3.36.66l.34.15.12.06a9.87,9.87,0,0,0,1.23-.85,28.58,28.58,0,0,0,5.84-6.84,28.2,28.2,0,0,0,3.53-8.79A18.13,18.13,0,0,0,351,285.79c-2.69-3.9-15-8-11.85,6.46.18.85.43,1.72.7,2.65a43.35,43.35,0,0,1,1.86,10.72c0,.15,0,.3,0,.46a23.49,23.49,0,0,1-.41,4.87A14.3,14.3,0,0,1,339.78,315.3Z" transform="translate(-283.93 -261.38)"/></g><path id="_Path_9" data-name="&lt;Path&gt;" class="cls-7" d="M338.8,315.67a12.8,12.8,0,0,0,1.88-4.86,23.18,23.18,0,0,0,.39-4.78c-.5,0-1,0-1.49,0l-1.07,0a34.18,34.18,0,0,1-1.7,9.78A15.35,15.35,0,0,1,338.8,315.67Z" transform="translate(-283.93 -261.38)"/><path id="_Path_10" data-name="&lt;Path&gt;" class="cls-8" d="M315.17,321.93a47.94,47.94,0,0,1-4.37-2A22.61,22.61,0,0,0,315.17,321.93Z" transform="translate(-283.93 -261.38)"/><path id="_Path_11" data-name="&lt;Path&gt;" class="cls-8" d="M305,316.38l-.05-.06v0Z" transform="translate(-283.93 -261.38)"/><path id="_Path_12" data-name="&lt;Path&gt;" class="cls-9" d="M332.61,312.86l-1.35-5.49c-.29.1-.58.22-.86.34C331.17,309.74,331.93,311.49,332.61,312.86Z" transform="translate(-283.93 -261.38)"/><path id="_Path_13" data-name="&lt;Path&gt;" class="cls-9" d="M334,306.15a23,23,0,0,0-4.69-9.17c.52,2.17,1.41,6.06,2.27,9.81A13.1,13.1,0,0,1,334,306.15Z" transform="translate(-283.93 -261.38)"/><path id="_Path_14" data-name="&lt;Path&gt;" class="cls-9" d="M329.92,307.92a16,16,0,0,0-1.57.84,9.46,9.46,0,0,0,3,4.78s1,.8,1.83,1.57l-.17-.71A40.43,40.43,0,0,1,329.92,307.92Z" transform="translate(-283.93 -261.38)"/><path id="_Path_15" data-name="&lt;Path&gt;" class="cls-9" d="M335.43,316.1c.44-.1.91-.18,1.38-.25a34.18,34.18,0,0,0,1.7-9.78,31.63,31.63,0,0,0-3.88.42A35.08,35.08,0,0,1,335.43,316.1Z" transform="translate(-283.93 -261.38)"/><path id="_Path_16" data-name="&lt;Path&gt;" class="cls-9" d="M334.68,316.28l.24-.06a1.87,1.87,0,0,1,0-.49,28.45,28.45,0,0,0-.81-9.14,20.25,20.25,0,0,0-2.43.64L333.2,314l1.39,2.22Z" transform="translate(-283.93 -261.38)"/><path id="_Path_17" data-name="&lt;Path&gt;" class="cls-9" d="M326.7,320.91a5.47,5.47,0,0,1,2-1.93c-.43,0-1.12-.07-1.54-.12a12.41,12.41,0,0,1-5.69,1.46l-.68,0c-4.9-.3-9.61-3.8-14-10.4-.12-.18-.29-.49-.5-.87-.41-.78-1-1.9-1.58-3.14l-.2-.41-.33-.69-1.43-3c-.56-1.18-1.05-2.2-1.36-2.83a5.66,5.66,0,0,0-1.48-2.11,1.46,1.46,0,0,0-2,.13c-.57.54-.36,1.12-.28,1.81a26.75,26.75,0,0,0,2.83,8.58c.07.14.3.73.37.87.56,1.08,1,1.86,1.55,2.85.7,1.22,4.21,6,5.34,6.81.25.19,2.31,1.6,3.05,2a47.94,47.94,0,0,0,4.37,2A13.68,13.68,0,0,0,326.7,320.91Z" transform="translate(-283.93 -261.38)"/><g id="_Group_3" data-name="&lt;Group&gt;"><path id="_Path_18" data-name="&lt;Path&gt;" class="cls-9" d="M318.1,316.78c-1.16-.61-2.52-1.68-5.17-4.6a59.32,59.32,0,0,1-3.88-5.39c-.1,0-.84-1.17-.94-1.2-.55-.16-.29-.05-.85-.05a8.79,8.79,0,0,0-1.17.09c-.31,0-.62.1-.93.16.37.75.71,1.46,1,2.06.43.85.78,1.5,1,1.8,4.29,6.48,8.88,9.91,13.63,10.2a11.55,11.55,0,0,0,5.55-1.11A16.31,16.31,0,0,1,318.1,316.78Z" transform="translate(-283.93 -261.38)"/><path id="_Path_19" data-name="&lt;Path&gt;" class="cls-9" d="M333.6,287.42a26.2,26.2,0,0,0-9.78-9.29,22.39,22.39,0,0,0-2.43-1.11,21.22,21.22,0,0,0-7.67-1.44c-8.14,0-15.36,4.65-19.88,11.84a31.69,31.69,0,0,0-3.71,8.52,34.54,34.54,0,0,0-1.22,9.12c0,16.28,11.11,29.48,24.81,29.48a21.11,21.11,0,0,0,3.13-.24,21.38,21.38,0,0,0,4.54-1.2,24.69,24.69,0,0,0,10.27-7.68q.53-.66,1-1.36a12.32,12.32,0,0,1-3.27-1.52,10.43,10.43,0,0,1-2.09,2.24c-17,11-30.63-10.77-29-15.19a5.53,5.53,0,0,1,1.05-2A25.08,25.08,0,0,1,296.8,299a3,3,0,0,1,.58-2.58,2.22,2.22,0,0,1,2.78,0,6,6,0,0,1,1.62,2.27c.31.63.8,1.66,1.36,2.84l1.13,2.37.44.92c1.17-.7,3.2.18,2.88-.52-.49-1.08-1.29-2.15-1.92-3.65-.29-.7-.72-1.57-1-2.27a20.63,20.63,0,0,1-1.47-5.53,13.24,13.24,0,0,1,0-4.87,9.55,9.55,0,0,1,4.47-5.69,15.22,15.22,0,0,1,7.66-2.07c.3,0,.57,0,.83.08a5.53,5.53,0,0,1,2.13.68l.09.06a5.75,5.75,0,0,1,2.46,3c.81,2.44,1.63,4.65,2.42,6.78l.87,2.35a1.74,1.74,0,0,1,.37-.81c.43-.55,1.07-.78,1.41-.5s.28.84-.07,1.36a17.93,17.93,0,0,1,1.57,1.1,2.21,2.21,0,0,1,.83-.35c.76-.16,1.44.05,1.53.47s-.3.73-.87.94l.09.33a21.81,21.81,0,0,1,5.54,10.3,32.06,32.06,0,0,1,4-.43c0-.18,0-.37,0-.55A33.13,33.13,0,0,0,333.6,287.42Z" transform="translate(-283.93 -261.38)"/><path id="_Path_20" data-name="&lt;Path&gt;" class="cls-9" d="M327.11,321.2l-.18.1c-3.69,2.5-4.55,2.86-8.44,2.85-7.49,0-16.31-8.71-18.62-15.67-.46.64,5.37,19.81,21.67,17.5a8.55,8.55,0,0,0,6.21-4.33Z" transform="translate(-283.93 -261.38)"/><path id="_Path_21" data-name="&lt;Path&gt;" class="cls-9" d="M333.17,315.72c-.81-.75-1.89-1.67-2.1-1.81a5.86,5.86,0,0,1-1.26-1.23A12.85,12.85,0,0,1,328,309l-.15-.44a40.08,40.08,0,0,1-1.17-5c-.05-.28-.1-.52-.13-.73A74.68,74.68,0,0,0,322.84,291c-.79-2.14-1.61-4.34-2.42-6.79a5.31,5.31,0,0,0-2.35-2.8l-.08,0a5.77,5.77,0,0,0-2.15-.73l-.52-.05H315c-2.37,0-5.2,1.64-6.72,2.56a8.48,8.48,0,0,0-3.91,5.31,12,12,0,0,0,0,4,29.34,29.34,0,0,0,1.28,5.39c.05-.15.1-.28.15-.4,0,.14-.1.27-.15.4.23.68.48,1.36.76,2a29.21,29.21,0,0,0,2,4c.38.62.73,1.14,1.06,1.61l.53.74a57.87,57.87,0,0,0,3.74,4.49,29.7,29.7,0,0,0,4.66,4.38A19.18,19.18,0,0,0,327,318.4l.77.09c.42,0,.84.07,1.26.08l.08,0a21.92,21.92,0,0,1,3.14-1.48c.43-.16,1-.37,1.67-.56Z" transform="translate(-283.93 -261.38)"/></g><path id="_Path_22" data-name="&lt;Path&gt;" class="cls-9" d="M327.11,295.23A.45.45,0,0,1,327,295a.47.47,0,0,1,0-.26q-.72-.6-1.52-1.15a1,1,0,0,1-1.13.3c.23.63.45,1.26.66,1.88.09-.23.59-.47,1.22-.56A3,3,0,0,1,327.11,295.23Z" transform="translate(-283.93 -261.38)"/><path id="_Path_23" data-name="&lt;Path&gt;" class="cls-9" d="M326.39,296.51a2.64,2.64,0,0,1,0-.33l-.31,0a1.89,1.89,0,0,1-.8-.08.61.61,0,0,1-.17-.09,52.35,52.35,0,0,1,1.82,6.66c0,.2.08.45.14.73a40.51,40.51,0,0,0,1.12,4.88,16.6,16.6,0,0,1,1.55-.82A101.88,101.88,0,0,1,326.39,296.51Z" transform="translate(-283.93 -261.38)"/><path id="_Path_24" data-name="&lt;Path&gt;" class="cls-9" d="M326.93,296.51a92.78,92.78,0,0,0,3.31,10.77c.3-.13.61-.25.92-.36l-2.66-10.81-.57-.56-.27,0h0a.19.19,0,0,1,0,.14,1.5,1.5,0,0,1-.86.45A3.42,3.42,0,0,1,326.93,296.51Z" transform="translate(-283.93 -261.38)"/><circle id="_Path_25" data-name="&lt;Path&gt;" class="cls-10" cx="7.61" cy="26.04" r="3.98"/><ellipse id="_Path_26" data-name="&lt;Path&gt;" class="cls-11" cx="35.16" cy="75.76" rx="4.37" ry="3.76"/></g><path id="_Path_27" data-name="&lt;Path&gt;" class="cls-12" d="M543.51,323.94c.35-.25,2,3.79,2.3,5.25s-9.59,8.41-13.17,1.48c-.64-2.93,2.7-3.33,3.55-3.18C533.82,329.32,541.92,331.2,543.51,323.94Z" transform="translate(-283.93 -261.38)"/><path class="cls-1" d="M546.13,329.11A25,25,0,0,0,545,326c-.9-2.18-1.2-2.3-1.35-2.35a.39.39,0,0,0-.37,0l-.11.07,0,.13c-.94,4.31-4.07,4.87-5,4.94-1.13.09-1.9-.25-2.05-.54a4.91,4.91,0,0,0-.66.12l0,.08c.26.69,1.39,1.1,2.74,1,3-.23,4.77-2.57,5.45-4.87a26.29,26.29,0,0,1,1.81,4.66c.07.43-2.1,2.61-5.31,3.65-4.23,1.37-6.27-.51-7.23-2.35a2.94,2.94,0,0,1-.06-.53.46.46,0,0,1-.21-.2c-.12-.22-.21-.45-.31-.68a3,3,0,0,0-.05,1.59l0,.08A5.6,5.6,0,0,0,537.5,334a9.75,9.75,0,0,0,3.37-.68C543.67,332.32,546.37,330.13,546.13,329.11Z" transform="translate(-283.93 -261.38)"/><path id="_Path_28" data-name="&lt;Path&gt;" class="cls-12" d="M534.94,323.64c-2.52,1.13-8-.88-8-.88s-1.75,2.21,2.23,5.5c.56.52,4.1,1.13,4.1,1.13l2-2.16S537.46,322.51,534.94,323.64Z" transform="translate(-283.93 -261.38)"/><path class="cls-13" d="M527.47,323.3a20.1,20.1,0,0,0,5.4,1,3.46,3.46,0,0,1,.7-.68c-2.62.24-6.52-1.15-6.56-1.17l-.22-.08-.08.1A3.29,3.29,0,0,1,527.47,323.3Z" transform="translate(-283.93 -261.38)"/><path id="_Path_29" data-name="&lt;Path&gt;" class="cls-12" d="M527,333.69a3.62,3.62,0,0,0,2.35-.86l3.82-3.81s-6.34-6.78-6.69-6.87c-.08,0-130.07-.73-130.52-.1-1.51,2.1,2.87,9.36-1,11.48C393.57,334.32,526.28,333.59,527,333.69Z" transform="translate(-283.93 -261.38)"/><path class="cls-1" d="M532.64,329.55a3.57,3.57,0,0,0,0-.4l-3.45,3.44a3.74,3.74,0,0,1-2.07.77c-.21,0-6.24,0-23.42,0-33,.11-99.87.34-107.79-.1,1.68-1.56,1.1-4.42.57-7-.34-1.67-.67-3.24-.24-4,4.49-.55,126.39.42,130.22.47.55.44,3.83,3.57,6.1,6,0-.07,0-.14-.05-.21a.4.4,0,0,1,.25-.54c-5.68-6.06-6-6.16-6.11-6.19s-40.37-.23-65.21-.31c-18.84-.06-33.93.28-44.83-.06-20-.62-20.63.22-20.84.39-1.11.89-.34,2.66.06,4.63.54,2.63,1.16,5.61-.94,6.76l-.23.14.06.25c.09.35.32,1.14,12,.54,6.34-.33,15.43.07,27,.07h1.45c22.41,0,49-.09,68.48-.16,13.29,0,22.91.25,23.34.28.95.12,2.22-.9,2.61-1.28l3.17-3.16A.48.48,0,0,1,532.64,329.55Z" transform="translate(-283.93 -261.38)"/><path id="_Path_30" data-name="&lt;Path&gt;" class="cls-12" d="M537.36,328.26l-.8-5.31s-4.44.36-4.26,2.57.15,5.27.41,5.14A5.45,5.45,0,0,1,537.36,328.26Z" transform="translate(-283.93 -261.38)"/><path id="_Compound_Path_" data-name="&lt;Compound Path&gt;" class="cls-1" d="M532.69,331a.36.36,0,0,1-.18,0c-.27-.16-.31-.45-.41-2.85,0-.82-.07-1.74-.13-2.54-.2-2.51,4.37-2.91,4.56-2.92l.3,0,.91,6-.41,0a5.09,5.09,0,0,0-4.36,2.26l0,.07-.07,0A.36.36,0,0,1,532.69,331Zm3.59-7.67c-.95.13-3.78.65-3.66,2.18.06.81.1,1.74.14,2.57,0,.64.06,1.37.1,1.87a5.76,5.76,0,0,1,4.12-2Z" transform="translate(-283.93 -261.38)"/><g id="_Group_4" data-name="&lt;Group&gt;"><path id="_Compound_Path_2" data-name="&lt;Compound Path&gt;" class="cls-1" d="M400.27,332.23v-8.59h2.17a3.59,3.59,0,0,1,1.21.18,2.33,2.33,0,0,1,.82.48,1.74,1.74,0,0,1,.46.69,2.43,2.43,0,0,1,.14.81v.31a2.29,2.29,0,0,1-.07.59,1.29,1.29,0,0,1-.2.42,2,2,0,0,1-.76.58,1.53,1.53,0,0,1,.77.6,2,2,0,0,1,.25,1.09v.48a2.23,2.23,0,0,1-.66,1.74,3.08,3.08,0,0,1-2.12.6Zm1.48-7.43v2.37h.67a1.26,1.26,0,0,0,1-.31,1.38,1.38,0,0,0,.26-.9,1.2,1.2,0,0,0-.28-.87,1.42,1.42,0,0,0-1-.29Zm0,3.45V331h.64a1.85,1.85,0,0,0,.71-.11.86.86,0,0,0,.39-.3,1,1,0,0,0,.16-.46,5.33,5.33,0,0,0,0-.58,3.22,3.22,0,0,0,0-.57.93.93,0,0,0-.17-.41.84.84,0,0,0-.39-.25,2.23,2.23,0,0,0-.65-.08Z" transform="translate(-283.93 -261.38)"/><path id="_Compound_Path_3" data-name="&lt;Compound Path&gt;" class="cls-1" d="M413.45,323.64v6.66a1.68,1.68,0,0,1-.18.78,2,2,0,0,1-.52.63,2.53,2.53,0,0,1-.77.43,2.73,2.73,0,0,1-.93.16,2.67,2.67,0,0,1-.92-.16,2.54,2.54,0,0,1-.76-.43,2.1,2.1,0,0,1-.52-.63,1.63,1.63,0,0,1-.19-.78v-6.66h1.48v6.54a.83.83,0,0,0,.26.68,1.09,1.09,0,0,0,1.31,0,.83.83,0,0,0,.26-.68v-6.54Z" transform="translate(-283.93 -261.38)"/><path id="_Compound_Path_4" data-name="&lt;Compound Path&gt;" class="cls-1" d="M417,332.23v-8.59h4.42v1.16h-2.94v2.52h2.56v1.16h-2.56V331h2.94v1.23Z" transform="translate(-283.93 -261.38)"/><path id="_Compound_Path_5" data-name="&lt;Compound Path&gt;" class="cls-1" d="M424.53,332.23v-8.59H426l2.24,5.18h0v-5.18h1.48v8.59h-1.4L426,327.06h0v5.16Z" transform="translate(-283.93 -261.38)"/><path id="_Compound_Path_6" data-name="&lt;Compound Path&gt;" class="cls-1" d="M433.15,325.66a1.88,1.88,0,0,1,.22-.92,2,2,0,0,1,.58-.66,2.62,2.62,0,0,1,.79-.39,3.08,3.08,0,0,1,1.79,0,2.82,2.82,0,0,1,.81.39,2.08,2.08,0,0,1,.57.66,1.88,1.88,0,0,1,.22.92v4.54a1.86,1.86,0,0,1-.22.93,2,2,0,0,1-.57.64,2.64,2.64,0,0,1-.81.4,3.08,3.08,0,0,1-1.79,0,2.46,2.46,0,0,1-.79-.4,1.92,1.92,0,0,1-.58-.64,1.86,1.86,0,0,1-.22-.93Zm1.48,4.54a.75.75,0,0,0,.3.66,1.28,1.28,0,0,0,1.41,0,.75.75,0,0,0,.3-.66v-4.54a.75.75,0,0,0-.3-.66,1.28,1.28,0,0,0-1.41,0,.75.75,0,0,0-.3.66Z" transform="translate(-283.93 -261.38)"/><path id="_Compound_Path_7" data-name="&lt;Compound Path&gt;" class="cls-1" d="M446.41,326.11h-1.48v-.28a1.15,1.15,0,0,0-.24-.73,1,1,0,0,0-.81-.31,1.09,1.09,0,0,0-.49.1.82.82,0,0,0-.46.6,1.94,1.94,0,0,0,0,.42,3.39,3.39,0,0,0,0,.42.71.71,0,0,0,.11.3.73.73,0,0,0,.25.23,2.51,2.51,0,0,0,.46.19l1.13.37a3,3,0,0,1,.8.37,1.68,1.68,0,0,1,.48.49,2,2,0,0,1,.22.66,5.41,5.41,0,0,1,.06.84,3.7,3.7,0,0,1-.13,1,2,2,0,0,1-.42.79,2.07,2.07,0,0,1-.8.53,3.33,3.33,0,0,1-1.21.19,3.12,3.12,0,0,1-1-.16,2.47,2.47,0,0,1-.8-.43,2.15,2.15,0,0,1-.53-.65,1.68,1.68,0,0,1-.2-.8v-.46h1.48v.39a.89.89,0,0,0,.24.61,1,1,0,0,0,.81.27,1.54,1.54,0,0,0,.59-.09.74.74,0,0,0,.33-.26.84.84,0,0,0,.14-.4c0-.16,0-.33,0-.52a4.32,4.32,0,0,0,0-.56.83.83,0,0,0-.12-.35.77.77,0,0,0-.27-.22,3.85,3.85,0,0,0-.44-.18l-1.06-.36a2.3,2.3,0,0,1-1.29-.86,2.54,2.54,0,0,1-.33-1.35,2.63,2.63,0,0,1,.16-.92,2,2,0,0,1,.48-.75,2.2,2.2,0,0,1,.78-.5,3.06,3.06,0,0,1,1.13-.19,2.9,2.9,0,0,1,1,.17,2.69,2.69,0,0,1,.79.45,1.72,1.72,0,0,1,.67,1.33Z" transform="translate(-283.93 -261.38)"/><path id="_Compound_Path_8" data-name="&lt;Compound Path&gt;" class="cls-1" d="M453.92,332.23l2.31-8.59h1.24l2.31,8.59H458.3l-.44-1.85h-2l-.44,1.85Zm3.67-3-.73-3.11h0l-.73,3.11Z" transform="translate(-283.93 -261.38)"/><path id="_Compound_Path_9" data-name="&lt;Compound Path&gt;" class="cls-1" d="M462.74,332.23v-8.59h1.48v8.59Z" transform="translate(-283.93 -261.38)"/><path id="_Compound_Path_10" data-name="&lt;Compound Path&gt;" class="cls-1" d="M467.84,332.23v-8.59h2.39q2.62,0,2.62,2.52a2.71,2.71,0,0,1-.28,1.29,2,2,0,0,1-1,.86l1.6,3.92H471.6l-1.38-3.67h-.89v3.67Zm1.48-7.43v2.68h.84a1.77,1.77,0,0,0,.63-.09.82.82,0,0,0,.36-.26,1,1,0,0,0,.16-.42,3.78,3.78,0,0,0,0-1.15,1,1,0,0,0-.17-.43,1.31,1.31,0,0,0-1-.34Z" transform="translate(-283.93 -261.38)"/><path id="_Compound_Path_11" data-name="&lt;Compound Path&gt;" class="cls-1" d="M476.22,332.23v-8.59h4.42v1.16h-2.94v2.52h2.56v1.16h-2.56V331h2.94v1.23Z" transform="translate(-283.93 -261.38)"/><path id="_Compound_Path_12" data-name="&lt;Compound Path&gt;" class="cls-1" d="M488.59,326.11H487.1v-.28a1.15,1.15,0,0,0-.24-.73,1,1,0,0,0-.81-.31,1.09,1.09,0,0,0-.49.1.82.82,0,0,0-.46.6,1.94,1.94,0,0,0,0,.42,3.39,3.39,0,0,0,0,.42.71.71,0,0,0,.11.3.73.73,0,0,0,.25.23,2.51,2.51,0,0,0,.46.19l1.13.37a3,3,0,0,1,.8.37,1.68,1.68,0,0,1,.48.49,2,2,0,0,1,.22.66,5.41,5.41,0,0,1,.06.84,3.7,3.7,0,0,1-.13,1,2,2,0,0,1-.42.79,2.07,2.07,0,0,1-.8.53,3.33,3.33,0,0,1-1.21.19,3.12,3.12,0,0,1-1-.16,2.47,2.47,0,0,1-.8-.43,2.15,2.15,0,0,1-.53-.65,1.68,1.68,0,0,1-.2-.8v-.46H485v.39a.89.89,0,0,0,.24.61,1,1,0,0,0,.81.27,1.54,1.54,0,0,0,.59-.09.74.74,0,0,0,.33-.26.84.84,0,0,0,.14-.4c0-.16,0-.33,0-.52a4.32,4.32,0,0,0,0-.56.83.83,0,0,0-.12-.35.77.77,0,0,0-.27-.22,3.85,3.85,0,0,0-.44-.18l-1.06-.36a2.3,2.3,0,0,1-1.29-.86,2.54,2.54,0,0,1-.33-1.35,2.63,2.63,0,0,1,.16-.92,2,2,0,0,1,.48-.75,2.2,2.2,0,0,1,.78-.5,3.06,3.06,0,0,1,1.13-.19,2.9,2.9,0,0,1,1,.17,2.69,2.69,0,0,1,.79.45,1.72,1.72,0,0,1,.67,1.33Z" transform="translate(-283.93 -261.38)"/><path id="_Compound_Path_13" data-name="&lt;Compound Path&gt;" class="cls-1" d="M496.56,332.23v-1.16l2.68-4.19a1.36,1.36,0,0,0,.23-.55,4.89,4.89,0,0,0,0-.59c0-.1,0-.21,0-.33a.69.69,0,0,0-.08-.31.61.61,0,0,0-.22-.22.81.81,0,0,0-.42-.09.83.83,0,0,0-.53.16.55.55,0,0,0-.2.46v.7h-1.48v-.68a1.55,1.55,0,0,1,.17-.72,1.91,1.91,0,0,1,.48-.59,2.23,2.23,0,0,1,.7-.4,2.49,2.49,0,0,1,.87-.15,2.56,2.56,0,0,1,1,.18,1.8,1.8,0,0,1,1.08,1.16,2.67,2.67,0,0,1,.12.82q0,.31,0,.52a2.66,2.66,0,0,1-.06.4,1.56,1.56,0,0,1-.15.39q-.1.19-.28.47L498.31,331H501v1.23Z" transform="translate(-283.93 -261.38)"/><path id="_Compound_Path_14" data-name="&lt;Compound Path&gt;" class="cls-1" d="M504.15,325.41a1.6,1.6,0,0,1,.18-.77,1.85,1.85,0,0,1,.49-.58,2.2,2.2,0,0,1,.71-.37,2.82,2.82,0,0,1,1.67,0,2.21,2.21,0,0,1,.71.37,1.85,1.85,0,0,1,.49.58,1.6,1.6,0,0,1,.18.77v5a1.6,1.6,0,0,1-.18.77,1.85,1.85,0,0,1-.49.58,2.2,2.2,0,0,1-.71.37,2.82,2.82,0,0,1-1.67,0,2.19,2.19,0,0,1-.71-.37,1.85,1.85,0,0,1-.49-.58,1.6,1.6,0,0,1-.18-.77Zm1.48,5a.56.56,0,0,0,.2.44.87.87,0,0,0,1,0,.56.56,0,0,0,.2-.44v-5a.56.56,0,0,0-.2-.44.87.87,0,0,0-1,0,.56.56,0,0,0-.2.44Z" transform="translate(-283.93 -261.38)"/><path id="_Compound_Path_15" data-name="&lt;Compound Path&gt;" class="cls-1" d="M511.75,332.23v-1.16l2.68-4.19a1.36,1.36,0,0,0,.23-.55,4.89,4.89,0,0,0,0-.59c0-.1,0-.21,0-.33a.69.69,0,0,0-.08-.31.61.61,0,0,0-.22-.22.81.81,0,0,0-.42-.09.83.83,0,0,0-.53.16.55.55,0,0,0-.2.46v.7h-1.48v-.68a1.55,1.55,0,0,1,.17-.72,1.91,1.91,0,0,1,.48-.59,2.23,2.23,0,0,1,.7-.4,2.49,2.49,0,0,1,.87-.15,2.56,2.56,0,0,1,1,.18A1.8,1.8,0,0,1,516,324.9a2.67,2.67,0,0,1,.12.82q0,.31,0,.52a2.66,2.66,0,0,1-.06.4,1.56,1.56,0,0,1-.15.39q-.1.19-.28.47L513.49,331h2.68v1.23Z" transform="translate(-283.93 -261.38)"/><path id="_Compound_Path_16" data-name="&lt;Compound Path&gt;" class="cls-1" d="M521.1,332.23v-7.29l-1.48.9v-1.3l1.48-.9h1.48v8.59Z" transform="translate(-283.93 -261.38)"/></g><path id="_Compound_Path_17" data-name="&lt;Compound Path&gt;" class="cls-1" d="M376.45,317.94V287.8h21.92v5.42H384.48v8h11.94v5.42H384.48v11.31Z" transform="translate(-283.93 -261.38)"/><path id="_Compound_Path_18" data-name="&lt;Compound Path&gt;" class="cls-1" d="M456,309.9c0-4.77-17.06-4.13-17.06-13.63,0-5,5.39-8.9,13-8.9,6.18,0,10,2.32,11.25,3.61l-5,4.86a9.29,9.29,0,0,0-6.92-2.79c-2.64,0-4.12,1.2-4.12,2.71,0,4.86,17,4.13,17,13.72,0,4.51-4.6,8.9-14,8.9-7.13,0-11.57-2.58-12.84-3.74l4.6-5.42a14.74,14.74,0,0,0,9.3,3.61C454.42,312.82,456,311.49,456,309.9Z" transform="translate(-283.93 -261.38)"/><path id="_Compound_Path_19" data-name="&lt;Compound Path&gt;" class="cls-1" d="M486.17,309.9c0-4.77-17.06-4.13-17.06-13.63,0-5,5.39-8.9,13-8.9,6.18,0,10,2.32,11.25,3.61l-5,4.86a9.29,9.29,0,0,0-6.92-2.79c-2.64,0-4.12,1.2-4.12,2.71,0,4.86,17,4.13,17,13.72,0,4.51-4.6,8.9-14,8.9-7.13,0-11.57-2.58-12.84-3.74l4.6-5.42a14.74,14.74,0,0,0,9.3,3.61C484.64,312.82,486.17,311.49,486.17,309.9Z" transform="translate(-283.93 -261.38)"/><path id="_Compound_Path_20" data-name="&lt;Compound Path&gt;" class="cls-1" d="M499.17,311.41l-1.64-5L512,288.23h9v17.89h4.86v5.29H521v6.54h-7.66v-6.54Zm14.53-16.47c-1.11,1.76-2.48,3.74-3.86,5.55l-4.28,5.63h7.82v-2.36a62.56,62.56,0,0,1,.53-8.81Z" transform="translate(-283.93 -261.38)"/><path id="_Compound_Path_21" data-name="&lt;Compound Path&gt;" class="cls-1" d="M558.5,290.85l-5.18,4.6a9.53,9.53,0,0,0-6.76-2.41c-4.86,0-9,2.19-9,9.33,0,7.44,3,10.66,9.14,10.66a13.64,13.64,0,0,0,3.49-.43V302.42h8.08v13.29c-2.69,1.5-6.39,2.67-13.26,2.67-10.51,0-15.74-5.16-15.74-15.22,0-10.88,7.77-15.78,17.59-15.78C554.16,287.37,557.49,289.91,558.5,290.85Z" transform="translate(-283.93 -261.38)"/><path d="M417.92,291.58v0h0v0Z" transform="translate(-283.93 -261.38)"/><path d="M417.6,292.6l.2-.05C417.75,292.64,417.7,292.66,417.6,292.6Z" transform="translate(-283.93 -261.38)"/><path d="M415.14,292.87a.94.94,0,0,1,.09-.12l.09.09c0,.06,0,.1-.06.14Z" transform="translate(-283.93 -261.38)"/><path d="M413.36,293.31h0Z" transform="translate(-283.93 -261.38)"/><path class="cls-1" d="M414.24,290.12s0,0,0,0l-.12,0a0,0,0,0,0,0,0Zm.1-.15c0,.08-.08.14,0,.2l.09,0,0-.07,0-.06.08,0Zm-.15-.15c0,.09.06.15.14.14S414.27,289.85,414.19,289.82Zm-.23-.12a1.83,1.83,0,0,1,.13.16C414.17,289.73,414.16,289.72,414,289.7Zm-1.24,1.43,0,0s0,0,.08,0a0,0,0,0,0,0,0Zm-.43-.37a.12.12,0,0,0,.18,0s0-.08,0-.09S412.31,290.67,412.29,290.76Zm1.2.49a.51.51,0,0,0,.57,0A.43.43,0,0,0,413.49,291.25Zm0-1.31a1.8,1.8,0,0,0,.2.18.23.23,0,0,0-.12-.33A1.09,1.09,0,0,0,413.52,289.94Zm-.09-.36a.89.89,0,0,1,.22,0,.72.72,0,0,1,.22.1,1.16,1.16,0,0,1,.06-.16c-.07,0-.14-.07-.2-.06a1.86,1.86,0,0,0-.31.1S413.43,289.56,413.43,289.58Zm-.18,1.1c.16.19.34,0,.51.08l-.11.14.07,0,.59-.08c.1,0,.19-.06.29-.09v0a2.51,2.51,0,0,0-.55-.17l-.33-.12a.86.86,0,0,0-.21-.07,1.52,1.52,0,0,1-.42-.06.88.88,0,0,0-.23,0,.75.75,0,0,1-.16,0,1.19,1.19,0,0,0-.87.48l.27-.08c.1-.05.19-.12.29-.18s.21,0,.32,0l.65,0c.08,0,.1,0,.09.12Zm1.59-.42h.11v0h-.11A.06.06,0,0,0,414.84,290.26Zm.36,0c-.08,0-.13,0-.19.07h.27C415.25,290.31,415.25,290.31,415.2,290.3Zm-.62,0,.2-.14-.26,0a.84.84,0,0,1,0,.1A.43.43,0,0,1,414.58,290.33Zm.31.07-.24.16C414.88,290.57,414.89,290.56,414.89,290.4Zm1,1.92H416v0l-.1-.05,0,0Zm.21-1.41a1.24,1.24,0,0,0-.91-.19c-.06,0-.13,0-.17,0s-.18,0-.25.05,0,0,0,0l.15.05a1.36,1.36,0,0,1-.17.16h-.25a.41.41,0,0,0,0,.09.6.6,0,0,0,.19.06.86.86,0,0,0,.27-.05.2.2,0,0,1,.29.12.51.51,0,0,1,.36-.2.44.44,0,0,1,.39,0Zm1.88,1a.36.36,0,0,1,0-.09l-.07,0v.11S418,291.9,418,291.89Zm5.31,23s0,0,0,.05.09,0,.12-.08S423.31,314.78,423.29,314.86Zm3.83-22.39c0-.15,0-.15-.13-.11Zm-4.57,20.77.13-.1c-.11,0-.11,0-.14.05A.11.11,0,0,0,422.55,313.24Zm-1.32-5.39.24.32C421.58,308,421.51,307.91,421.23,307.85Zm6.08-14.95s0,0,0,0h-.13v0l.08,0Zm0-.33s0,0,0,0l-.1,0s0,0,0,.05Zm.26.35-.19-.07C427.42,293,427.43,293,427.61,292.92Zm.08-.17,0-.05s0,0,0,.05l0,.05Zm-9.34-.72s0,0,.06,0l-.08-.05s0,0,0,.05Zm-2-1a1.55,1.55,0,0,0,.71-.13s0,0,.05-.06a.91.91,0,0,1-.46,0h-.23C416.33,290.91,416.33,291,416.36,291.06Zm1.78,18.54.39-.25s-.06-.06-.07-.05l-.39.17s0,0,0,.06Zm.07-2.54c.14.11.21,0,.29-.07l.1-.09c-.16-.17-.39-.07-.56-.16,0,0,0,0,0,0l.08.11c-.09,0-.09.09,0,.15S418.17,307,418.21,307.06Zm3,5.61a.19.19,0,0,0,0,.07h0a.19.19,0,0,0,0-.08Zm-1.37-3.53a.19.19,0,0,0,.24.09C420,309.15,419.95,309.1,419.84,309.14Zm.81,3.63c0,.06,0,.1,0,.15h0c0-.09.12-.11.09-.23Zm-1.7-3.58c-.05-.09-.13-.06-.19-.08a1,1,0,0,0-.07.15Zm.11,4s-.07-.09-.12-.13a.57.57,0,0,0-.16,0c-.05.12-.09.25-.14.36a.45.45,0,0,1-.1.13.2.2,0,0,0-.1.22.84.84,0,0,0,.49-.08.07.07,0,0,0,0-.05A2.1,2.1,0,0,0,419.06,313.15Zm-1.14-21.55c0,.13,0,.13.09.14s-.05-.1-.09-.14v0h0a2.17,2.17,0,0,0,0-.25l-.09,0h0s-.05,0-.06.07.09.18.16.21v0Zm-.09.56c.07-.06.15-.11.07-.23Zm0,21.27c0,.21.16.27.36.28a.36.36,0,0,0,0-.32c-.12,0-.08.19-.2.14s-.08-.15-.12-.2,0-.15,0-.23a.36.36,0,0,0-.23.2.2.2,0,0,0,0,.13c0,.05.09,0,.13,0ZM417.48,291c0-.1,0-.15-.13-.11Zm0,.08.12.06,0,0-.12-.07Zm.09,22.39a.16.16,0,0,0-.17-.15v-.2s.1,0,.14,0,0-.1.06-.14-.24,0-.27-.15h.13c.1,0,.23,0,.28-.14s.06,0,.09-.06a.63.63,0,0,0,.37-.41.71.71,0,0,0,0-.59s0-.11,0-.16.07-.17-.07-.2v-.06c0-.11,0-.22-.16-.26s0-.08,0-.14l-.16,0c0-.08,0-.16,0-.23s.1-.14.15-.16.21,0,.25-.19l-.13,0a.93.93,0,0,1,0-.13l.2,0,0-.14h0a.44.44,0,0,1,.16,0c.15,0,.17,0,.13-.17l.24-.08c-.1-.13-.13-.14-.26-.1a2.34,2.34,0,0,0-.49.14l0-.07-.08-.16-.71-1.52s.07,0,.08-.08.12-.19.25-.2a.2.2,0,0,0,.14-.06l-.08,0a.56.56,0,0,1-.61-.48s0-.06-.05-.1a1.8,1.8,0,0,1-.08-.21.14.14,0,0,1,.06-.18.21.21,0,0,0,.12-.22.3.3,0,0,1,.14-.23.22.22,0,0,0,.12-.22c0-.09,0-.15-.12-.15a.22.22,0,0,1-.2-.17c0-.08.07-.2.18-.24l.13,0c0-.1,0-.21,0-.31a.34.34,0,0,1,.09-.15l.18-.11a1,1,0,0,1,0-.18l-.22,0c0-.09,0-.17-.06-.29l.18.06a.27.27,0,0,0,.37-.28c0-.17,0-.21.19-.23a2.33,2.33,0,0,1,.28-.05.7.7,0,0,0,.52-.42c.06-.1,0-.16-.1-.27.09-.13,0-.22-.11-.31l0,0a.39.39,0,0,1,.16.07c.12.09.26.05.38.07s.23-.1.32-.21a2,2,0,0,0,.28-.37c0-.05.07-.08.11-.1a.76.76,0,0,0,.34-.37.81.81,0,0,1,.29-.32.35.35,0,0,0,.15-.35.46.46,0,0,1,.25-.53l.23-.14c.11-.06.24.1.36-.06s.24-.07.38-.06l.27,0s.05-.08.1-.11a.59.59,0,0,1,.16-.07.49.49,0,0,1,.17-.3c.1-.11.25-.23.24-.42s.13-.12.21-.17a.41.41,0,0,1,0-.36.2.2,0,0,0,0-.11c0-.19,0-.37.07-.56a.69.69,0,0,0,.39-.3.64.64,0,0,1,.25-.21.87.87,0,0,0,.52-.64,1.24,1.24,0,0,0-.08-.51.22.22,0,0,0-.16-.12.86.86,0,0,1-.48-.31l-.28-.28a.76.76,0,0,0-.39-.16,1.39,1.39,0,0,1-.45-.14.45.45,0,0,0-.34-.07l-.06-.1a.28.28,0,0,0-.22-.2c-.15,0-.28-.15-.43-.19a1.9,1.9,0,0,1-.7-.34s0-.06,0-.08a.16.16,0,0,0-.06-.22.49.49,0,0,1-.22-.41.24.24,0,0,0-.09-.16,1.87,1.87,0,0,0-.4-.27,1.3,1.3,0,0,0-.75-.15.54.54,0,0,1-.39-.09,1.31,1.31,0,0,1-.31-.27.75.75,0,0,0-.49-.25l-.15-.23a2.18,2.18,0,0,0,.06-.22l-.58,0c-.06,0-.13,0-.18-.05s-.1,0-.15,0c0,.17-.08.23-.22.22h-.06a.82.82,0,0,0-.65,0c-.13-.18-.16-.2-.42-.2,0-.06-.05-.13-.1-.24l-.12.3c-.1,0-.19.14-.35.06l.21-.16a.19.19,0,0,0-.32,0,.86.86,0,0,1-.43.23.84.84,0,0,0-.37.17s-.07.06-.07.09c0,.24-.2.33-.36.46a.83.83,0,0,0-.16-.09.65.65,0,0,0-.35-.07.38.38,0,0,0-.24.08,1.16,1.16,0,0,1-.24.14.1.1,0,0,1-.09,0c-.22-.08-.49-.1-.6-.4,0-.26.09-.54.14-.84a.73.73,0,0,0-.56-.1c-.24.07-.49.12-.74.18l-.05,0c.08-.08.06-.2.14-.29s0-.21.09-.31a2.47,2.47,0,0,0,.1-.35c.16,0,.16-.14.14-.29a.25.25,0,0,0-.09,0,2.44,2.44,0,0,0-.75.24.24.24,0,0,0-.13.2.52.52,0,0,1-.39.46,1.44,1.44,0,0,0-.31.13.65.65,0,0,1-.49.08.32.32,0,0,1-.21-.1,2.09,2.09,0,0,1-.14-.17.6.6,0,0,1-.08-.16s0,0,0,0c-.19-.28,0-.53.06-.79a.74.74,0,0,1,.35-.41l1.06-.72a.32.32,0,0,1,.25-.07c.06,0,.12,0,.18,0l.05,0c.07,0,.17.08.23-.05a1.21,1.21,0,0,1,.09-.2l.45-.12a.33.33,0,0,1,.33,0c.06.06.14,0,.2,0s.23-.09.34,0,.06,0,.1.07,0,.06,0,.09a.18.18,0,0,0,0,.24c.07.08.12.19.21.23a.25.25,0,0,1,.12.18l-.19.08a.46.46,0,0,0,.49-.61A3.75,3.75,0,0,0,413,289a.35.35,0,0,1,.09-.47,1.66,1.66,0,0,1,.21-.16l.29-.21.11-.08.46-.17.47-.14a15.52,15.52,0,0,1,4.34-.45A15.3,15.3,0,0,1,429,291.62a1.32,1.32,0,0,0,.16.12.34.34,0,0,0-.18.39,1.79,1.79,0,0,1,.14.13.22.22,0,0,1,0,.13.25.25,0,0,0,0,.22.43.43,0,0,1,0,.46.21.21,0,0,0,0,.11.28.28,0,0,1-.24.3.4.4,0,0,1,.16.44.24.24,0,0,0,.07.26s0,.07,0,.12,0,.1,0,.17.24.08.31.18.2.29.3.45a.34.34,0,0,1,.05.14c0,.11,0,.22.06.33s0,.05.05.07a4.18,4.18,0,0,1,.67.85,2.52,2.52,0,0,0,.33.39.2.2,0,0,0,.14.06,1.52,1.52,0,0,1,1.13.57l.47.05a.26.26,0,0,1,.23.22c.15.54.33,1.09.45,1.64a14.8,14.8,0,0,1,.34,4.2s0,.09,0,.13a.15.15,0,0,1-.1.16.55.55,0,0,0-.27.23l-.17.18a1.15,1.15,0,0,0-.4.8,3.34,3.34,0,0,1-.09.52c0,.16-.06.33-.1.5a.43.43,0,0,1-.1.23,4.38,4.38,0,0,0-.24.43,4.17,4.17,0,0,0-.26.46c-.06.16-.1.33-.15.5s-.07.27-.12.39-.14.35-.22.53-.06.22-.22.21h0s-.05.06-.05.08-.21.19-.16.36a.76.76,0,0,1,0,.15.15.15,0,0,0,.09.18s.07.06.1.1,0,.08.07.09a.51.51,0,0,1,.24.38s0,.08,0,.09.07.18,0,.28a15.39,15.39,0,0,1-7.13,6.26l-.11,0h0c-.06-.08,0-.25-.17-.28a.74.74,0,0,0,.08-.13H424l.09-.1-.21-.4c-.06-.12-.14-.23-.29-.19a0,0,0,0,1,0,0,.35.35,0,0,1,.2-.35c.05,0,.09-.06.06-.13s-.1-.06-.16,0-.17,0-.27-.11a1.71,1.71,0,0,0-.18-.2c-.06-.08-.06-.11,0-.16s.1-.07,0-.14,0-.08,0-.12l-.19-.07.22-.12-.16-.09.08-.08.1.06c-.05-.19-.05-.19-.19-.14s-.05-.07,0-.08a.22.22,0,0,0-.05-.22,1.4,1.4,0,0,0-.38-.46c-.06,0-.1-.06-.17,0s-.19,0-.25-.13l.19-.18a.12.12,0,0,0-.2,0c-.07.05-.07.05-.16,0l.13-.17c-.06-.07-.17.05-.17-.1l-.14.13c0-.07,0-.12,0-.17s-.12,0-.15,0-.13,0-.13.06-.07.12-.16.12l-.22,0a.21.21,0,0,0-.25.15,1.55,1.55,0,0,0-.23.08.31.31,0,0,1-.28,0,1.16,1.16,0,0,0-.86.06.35.35,0,0,0-.27.29s0,.05-.06.08l.15.09v.16a1,1,0,0,1-.3.05.3.3,0,0,0-.29.13l-.05.08c-.13-.16-.36-.12-.54.13-.13,0,0-.11,0-.18l-.11,0,.05-.09-.39-.2a.47.47,0,0,0-.14.05C417.6,313.63,417.54,313.58,417.54,313.52Z" transform="translate(-283.93 -261.38)"/><path class="cls-1" d="M410.89,296.08l.08-.1,0,0-.09.08Zm-.24-.25v0l-.1-.06,0,0,0,0Zm-.23.37a.18.18,0,0,0,.18-.09c0-.05.16,0,.13-.14l-.33-.07C410.28,296,410.38,296.1,410.42,296.2Zm5.19,19.47-.08,0,0,.11.06,0Zm-.33.37c.13.09.13.09.33,0,0-.05,0-.11,0-.18A.32.32,0,0,0,415.28,316Zm1.75-4.72s0,0-.06-.07a.31.31,0,0,0-.09.07s0,.06.07.1S417,311.35,417,311.32Zm-8.94-18.51c.23,0,.47,0,.71,0a.62.62,0,0,0,.42-.15.47.47,0,0,1,.56,0l.3.16a.35.35,0,0,0,.2,0c.18-.06.35,0,.52,0s.07,0,.09,0c.29-.08.45.15.65.26,0,0,.05.1.06.15s.09.2.21.17a.75.75,0,0,1,.33,0c0,.09,0,.12.09.15s.27,0,.41,0,0,.12,0,.21l.12-.13c.13.11.25.07.37-.05l-.08-.12.18-.17.13,0h0a.69.69,0,0,0,0,.13c.1,0,.1,0,0-.13s.09,0,.1.07.13.21.21.3a.24.24,0,0,1,.06.11c0,.15,0,.29,0,.43a1.13,1.13,0,0,0,0,.15c0,.05-.07.1-.09.16s-.11,0-.14.06-.12.16-.14.26a.29.29,0,0,1-.18.19.09.09,0,0,0-.06.07,1.51,1.51,0,0,1-.15.37.24.24,0,0,0,0,.2v.17l.19.14c-.08.1-.15.18-.21.27a.15.15,0,0,0,0,.19c0,.07.1.13.06.24a.26.26,0,0,0,.12.11.41.41,0,0,1,.29.18,5.23,5.23,0,0,1,.55.78c.1.13.22.25.32.38a.2.2,0,0,1,.06.09c-.06.15.06.2.14.27a1.62,1.62,0,0,0,.57.29,1.77,1.77,0,0,1,.38.15,1,1,0,0,1,.33.23.58.58,0,0,1,.1.32,5.09,5.09,0,0,1,0,.56s0,0,0,.06a1.3,1.3,0,0,0,0,.62,3.24,3.24,0,0,1-.05.62,2.56,2.56,0,0,1,0,.27v0c.12.2-.06.41,0,.61a1,1,0,0,1,0,.61l-.12.57a.16.16,0,0,1,0,.09.29.29,0,0,0,0,.34s0,.06,0,.09.19.2.1.35a.28.28,0,0,0,0,.09v.81l.22-.08a.27.27,0,0,0,0,.08h-.16l-.14.31.1.06c0,.1-.06.21-.08.32a.45.45,0,0,0,0,.12.34.34,0,0,1,.1,0,.11.11,0,0,1,.08,0,.09.09,0,0,1,0,.07c-.21.16-.09.36-.05.55a2.64,2.64,0,0,0,.15.45,1.44,1.44,0,0,0,.28.43,1.84,1.84,0,0,0,.71.39c.07,0,.16,0,.25.05h0l.71,1.52c0,.11,0,.14.08.16l0,.07c-.12.07-.32.09-.31.3a.05.05,0,0,1,0,.05c-.18.09-.19.3-.33.42s0,0,0,.05,0,.19.15.21a.26.26,0,0,1-.1.3c-.07,0-.07-.12-.17-.1s-.12.13-.15.21l.16.3-.12,0c0-.12-.06-.14-.13-.08l-.14.11c.07.14.14,0,.21,0s-.05,0-.05.08,0,.1,0,.11a1,1,0,0,0,.3.12c.15,0,.21,0,.29-.22,0,.19,0,.27-.2.27a.83.83,0,0,0-.15,0l-.19-.07-.08.17,0,0,0-.16h-.17c.06.15-.14.23-.05.4-.17,0-.32-.05-.46-.09a.52.52,0,0,0-.33.07c-.1,0-.19.09-.29,0h-.07a.45.45,0,0,0-.37.29c0,.06.17-.06.19.08l-.18.06.27.29,0,0a.45.45,0,0,0,0,.08h.24c-.23,0-.25.3-.47.32s-.13-.18-.27-.05l.07.12-.18-.1a.33.33,0,0,0-.15.36s0,.07,0,.12.05-.18-.07-.26l-.26.28-.11,0s-.05,0-.05.07a.12.12,0,0,0,.05.07h.11a.73.73,0,0,0,.33-.19c-.06.12-.11.26-.3.26a.85.85,0,0,0,.11.14l-.05,0-.2,0,0,0,.14.1c-.1.05-.09.12-.05.22a1.16,1.16,0,0,1,.05.52c.14.11.19.33.39.34,0,.13,0,.24,0,.36a.6.6,0,0,0,.35,0c.09-.06.2-.08.26-.19a.19.19,0,0,1,.09-.09l.3,0c0,.06.06.15.09.26l.14-.1,0,0-.09.13c-.05.07,0,.12,0,.14l.21-.34.27.17-.19.08c.16,0,.19.1.14.2s0,.07,0,.14c.12-.17.21-.32.38-.35,0,.07,0,.16,0,.26a.76.76,0,0,1,0,.15,4.18,4.18,0,0,1-.19.6.71.71,0,0,1-.38.34.25.25,0,0,1-.3-.09l-.36.07v.17l.25-.1a.39.39,0,0,1-.16.25,2.15,2.15,0,0,1-.24.18.16.16,0,0,1-.12,0,2.23,2.23,0,0,1-.57-.12,4.21,4.21,0,0,0-.51-.12,15.38,15.38,0,0,1-10.78-10.84c0-.16-.06-.31-.11-.46a3.78,3.78,0,0,1-.1-.46c0-.16-.07-.33-.1-.49s-.05-.32-.07-.48,0-.32-.05-.47,0-.33,0-.5A15.22,15.22,0,0,1,406.44,293l.31-.36,0-.06.52.18a.49.49,0,0,0,.24,0,.41.41,0,0,1,.22,0A1.66,1.66,0,0,0,408.09,292.81Z" transform="translate(-283.93 -261.38)"/></svg>